<svg version="1.2" xmlns="http://www.w3.org/2000/svg" viewBox="0 0 2881 806" width="2881" height="806">
	<title>Conv-Net-LSTM-drawing-pdf</title>
	<defs>
		<clipPath clipPathUnits="userSpaceOnUse" id="cp1">
			<path d="m0 0h2881v806h-2881z"/>
		</clipPath>
	</defs>
	<style>
		.s0 { opacity: .4;fill: #6699cc;stroke: #000000;stroke-miterlimit:10;stroke-width: .8 } 
		.s1 { fill: none;stroke: #000000;stroke-miterlimit:10;stroke-width: .8;stroke-dasharray: 5.977660179138184,3.9851000308990483 } 
		.s2 { fill: none;stroke: #000000;stroke-miterlimit:10;stroke-width: .8 } 
		.s3 { fill: #000000 } 
		.s4 { opacity: .4;fill: #ffcc66;stroke: #000000;stroke-miterlimit:10;stroke-width: .8 } 
		.s5 { fill: none;stroke: #155555;stroke-miterlimit:10;stroke-width: 3.2 } 
		.s6 { fill: none;stroke: #155555;stroke-miterlimit:10;stroke-width: 4.5 } 
		.s7 { opacity: .6;fill: #155555;stroke: #155555;stroke-miterlimit:10;stroke-width: 4.5 } 
		.s8 { opacity: .4;fill: #ffaa55;stroke: #000000;stroke-miterlimit:10;stroke-width: .8 } 
		.s9 { opacity: .4;fill: #c40000;stroke: #000000;stroke-miterlimit:10;stroke-width: .8 } 
		.s10 { opacity: .4;fill: #6a006a;stroke: #000000;stroke-miterlimit:10;stroke-width: .8 } 
	</style>
	<g id="Page 1" clip-path="url(#cp1)">
		<path id="Path 1" fill-rule="evenodd" class="s0" d="m487.4 658.3h-22.6v-453.5h22.6zm174.6-628.2h-22.6l-174.6 174.7h22.6z"/>
		<path id="Path 2" class="s1" d="m662 483.7h-22.6m-174.6 174.6l174.6-174.6m0-453.5v453.5"/>
		<path id="Path 3" class="s2" d="m464.8 658.3h22.6"/>
		<path id="Path 4" class="s0" d="m487.4 204.8l174.6-174.6v453.5l-174.6 174.6z"/>
		<path id="Path 5" class="s2" d="m487.4 658.3l174.6-174.6"/>
		<path id="19" class="s3" aria-label="19"  d="m498.4 695l-2.4-2.4 4.7-4.7-16.2-16.1-4 6.1-2.6-2.6 4-6.1 2.9-2.9 18.7 18.8 4.7-4.7 2.4 2.4zm17.6-18.5l-2.6-2.6q1.5-0.5 2.9-1.4 1.4-0.8 2.5-1.9 2.8-2.8 2.4-6.2-0.4-3.4-4.1-7.5 0.4 2.1-0.2 4-0.6 1.9-2.1 3.4-3.2 3.2-7 3.1-3.8-0.1-7.1-3.4-3.2-3.3-3.3-7.1 0-3.9 3.2-7.1 3.6-3.7 8.4-2.8 4.7 0.9 10.1 6.2 5 5 5.6 10.4 0.6 5.3-3.4 9.3-1.1 1.1-2.4 2-1.3 0.9-2.9 1.6zm-3.3-14.6q1.9-1.9 1.7-4.4-0.2-2.4-2.5-4.7-2.2-2.3-4.7-2.5-2.4-0.2-4.4 1.7-1.9 2-1.7 4.4 0.2 2.5 2.5 4.7 2.3 2.3 4.7 2.5 2.5 0.2 4.4-1.7z"/>
		<path id="Path 7" class="s2" d="m464.8 658.3v-453.5"/>
		<path id="Batch Normalisation" class="s3" aria-label="Batch Normalisation"  d="m51.1 431.7h-6.5v11h6.5q3.2 0 4.8-1.4 1.6-1.3 1.6-4.1 0-2.8-1.6-4.1-1.6-1.4-4.8-1.4zm-0.5-12.3h-6v9h6q2.9 0 4.4-1.1 1.4-1.1 1.4-3.4 0-2.2-1.4-3.3-1.5-1.2-4.4-1.2zm-10 26.6v-29.9h10.3q4.6 0 7.1 1.9 2.5 2 2.5 5.5 0 2.7-1.3 4.4-1.3 1.6-3.7 2 2.9 0.6 4.6 2.7 1.7 2 1.7 5 0 4-2.8 6.2-2.7 2.2-7.7 2.2zm41.8-11.3h-3.7q-4.4 0-6.1 1.1-1.8 1-1.8 3.4 0 2 1.3 3.2 1.3 1.1 3.5 1.1 3.1 0 4.9-2.2 1.9-2.1 1.9-5.8zm3.7-1.5v12.8h-3.7v-3.4q-1.3 2.1-3.1 3-1.9 1-4.6 1-3.5 0-5.5-1.9-2.1-2-2.1-5.2 0-3.8 2.6-5.7 2.5-1.9 7.5-1.9h5.2v-0.4q0-2.5-1.7-3.9-1.6-1.4-4.7-1.4-1.9 0-3.7 0.4-1.8 0.5-3.5 1.4v-3.4q2-0.8 3.9-1.1 1.9-0.4 3.7-0.4 4.9 0 7.3 2.5 2.4 2.5 2.4 7.6zm7.5-16h3.7v6.4h7.6v2.9h-7.6v12.1q0 2.8 0.8 3.6 0.7 0.7 3 0.7h3.8v3.1h-3.8q-4.2 0-5.9-1.6-1.6-1.6-1.6-5.8v-12.1h-2.7v-2.9h2.7zm32.3 7.2v3.5q-1.6-0.9-3.2-1.3-1.5-0.5-3.1-0.5-3.6 0-5.6 2.3-2 2.3-2 6.4 0 4.1 2 6.4 2 2.2 5.6 2.2 1.6 0 3.1-0.4 1.6-0.4 3.2-1.3v3.4q-1.6 0.7-3.2 1.1-1.7 0.4-3.5 0.4-5.1 0-8.1-3.2-3-3.2-3-8.6 0-5.5 3.1-8.6 3-3.2 8.2-3.2 1.7 0 3.3 0.4 1.7 0.3 3.2 1zm25 8.1v13.5h-3.7v-13.4q0-3.2-1.2-4.8-1.2-1.6-3.7-1.6-3 0-4.7 1.9-1.7 1.9-1.7 5.2v12.7h-3.7v-31.2h3.7v12.2q1.3-2 3.1-3 1.8-1 4.1-1 3.9 0 5.8 2.4 2 2.4 2 7.1zm20.6 13.5v-29.9h5.4l13.3 25v-25h3.9v29.9h-5.5l-13.2-25v25zm39.2-19.9q-3 0-4.7 2.4-1.7 2.3-1.7 6.3 0 4 1.7 6.3 1.7 2.3 4.7 2.3 2.9 0 4.7-2.3 1.7-2.3 1.7-6.3 0-4-1.7-6.3-1.8-2.4-4.7-2.4zm0-3.1q4.8 0 7.5 3.1 2.8 3.2 2.8 8.7 0 5.5-2.8 8.6-2.7 3.2-7.5 3.2-4.8 0-7.6-3.2-2.7-3.1-2.7-8.6 0-5.5 2.7-8.7 2.8-3.1 7.6-3.1zm29.4 0.2v3.8q-0.6-0.4-1.4-0.5-0.7-0.2-1.6-0.2-3.1 0-4.8 2-1.6 2.1-1.6 5.9v11.8h-3.8v-22.4h3.8v3.4q1.1-2 3-3 1.8-1 4.5-1 0.4 0 0.8 0.1 0.5 0 1.1 0.1zm20.6 4.7q1.4-2.5 3.3-3.7 1.9-1.2 4.5-1.2 3.5 0 5.4 2.5 1.9 2.4 1.9 7v13.5h-3.7v-13.4q0-3.2-1.1-4.8-1.2-1.6-3.5-1.6-2.9 0-4.5 1.9-1.7 1.9-1.7 5.2v12.7h-3.7v-13.4q0-3.3-1.1-4.8-1.2-1.6-3.6-1.6-2.8 0-4.5 1.9-1.6 2-1.6 5.2v12.7h-3.7v-22.4h3.7v3.4q1.2-2 3-3 1.8-1 4.2-1 2.4 0 4.1 1.3 1.8 1.2 2.6 3.6zm36.3 6.8h-3.6q-4.5 0-6.2 1-1.8 1.1-1.8 3.5 0 2 1.3 3.1 1.3 1.2 3.5 1.2 3.1 0 5-2.2 1.8-2.2 1.8-5.8zm3.7-1.5v12.8h-3.7v-3.4q-1.2 2-3.1 3-1.9 1-4.6 1-3.5 0-5.5-1.9-2-2-2-5.2 0-3.8 2.5-5.7 2.5-1.9 7.6-1.9h5.1v-0.4q0-2.5-1.7-3.9-1.6-1.4-4.6-1.4-2 0-3.8 0.4-1.8 0.5-3.5 1.4v-3.4q2-0.8 3.9-1.2 1.9-0.4 3.7-0.4 4.9 0 7.3 2.6 2.4 2.5 2.4 7.6zm7.6 12.8v-31.1h3.7v31.1zm11.4 0v-22.4h3.6v22.4zm0-26.5v-4.6h3.7v4.6zm25.7 4.7v3.5q-1.5-0.8-3.2-1.2-1.7-0.4-3.5-0.4-2.8 0-4.1 0.9-1.4 0.8-1.4 2.5 0 1.3 1 2 1 0.7 3.9 1.4l1.3 0.3q3.9 0.8 5.6 2.4 1.6 1.5 1.6 4.2 0 3.1-2.5 5-2.4 1.8-6.8 1.8-1.8 0-3.7-0.4-2-0.3-4.1-1v-3.8q2 1 4 1.6 2 0.5 3.9 0.5 2.6 0 4-0.9 1.4-0.9 1.4-2.5 0-1.5-1-2.3-1-0.8-4.4-1.5l-1.3-0.3q-3.4-0.8-4.9-2.2-1.6-1.5-1.6-4.1 0-3.2 2.3-4.9 2.2-1.8 6.3-1.8 2.1 0 3.9 0.3 1.8 0.3 3.3 0.9zm20.9 10.5h-3.6q-4.5 0-6.2 1.1-1.7 1-1.7 3.4 0 2 1.2 3.2 1.3 1.1 3.6 1.1 3 0 4.9-2.2 1.8-2.1 1.8-5.7zm3.7-1.6v12.8h-3.7v-3.4q-1.2 2.1-3.1 3-1.9 1-4.6 1-3.5 0-5.5-1.9-2-2-2-5.2 0-3.8 2.5-5.7 2.5-1.9 7.6-1.9h5.1v-0.4q0-2.5-1.6-3.9-1.7-1.4-4.7-1.4-2 0-3.8 0.4-1.8 0.5-3.5 1.4v-3.4q2-0.8 3.9-1.1 1.9-0.4 3.7-0.4 4.9 0 7.3 2.5 2.4 2.5 2.4 7.6zm7.5-16h3.7v6.4h7.6v2.9h-7.6v12.1q0 2.8 0.8 3.6 0.8 0.7 3.1 0.7h3.7v3.1h-3.7q-4.3 0-5.9-1.6-1.7-1.6-1.7-5.8v-12.1h-2.7v-2.9h2.7zm16.2 28.8v-22.4h3.7v22.4zm0-26.5v-4.7h3.6v4.7zm20.1 6.7q-2.9 0-4.7 2.3-1.7 2.3-1.7 6.3 0 4 1.7 6.4 1.7 2.3 4.7 2.3 3 0 4.7-2.4 1.7-2.3 1.7-6.3 0-4-1.7-6.3-1.7-2.3-4.7-2.3zm0-3.2q4.8 0 7.6 3.2 2.7 3.1 2.7 8.6 0 5.5-2.7 8.7-2.8 3.1-7.6 3.1-4.8 0-7.5-3.1-2.8-3.2-2.8-8.7 0-5.5 2.8-8.6 2.7-3.2 7.5-3.2zm35.1 9.5v13.5h-3.7v-13.4q0-3.2-1.3-4.8-1.2-1.6-3.7-1.6-3 0-4.7 1.9-1.7 1.9-1.7 5.2v12.7h-3.7v-22.4h3.7v3.5q1.3-2.1 3.1-3.1 1.8-1 4.1-1 3.9 0 5.9 2.4 2 2.4 2 7.1z"/>
		<path id="Path 9" fill-rule="evenodd" class="s4" d="m907 658.3h-22.7v-453.5h22.7zm174.6-628.2h-22.7l-174.6 174.7h22.7z"/>
		<path id="Path 10" class="s1" d="m1081.6 483.7h-22.7m-174.6 174.6l174.6-174.6m0-453.5v453.5"/>
		<path id="Path 11" class="s2" d="m884.3 658.3h22.7"/>
		<path id="Path 12" fill-rule="evenodd" class="s4" d="m929.6 658.3h-22.6v-453.5h22.6zm174.7-628.2h-22.7l-174.6 174.7h22.6z"/>
		<path id="Path 13" class="s1" d="m1104.3 483.7h-22.7m-174.6 174.6l174.6-174.6m0-453.5v453.5"/>
		<path id="Path 14" class="s2" d="m907 658.3h22.6"/>
		<path id="Path 15" fill-rule="evenodd" class="s4" d="m952.3 658.3h-22.7v-453.5h22.7zm174.6-628.2h-22.6l-174.7 174.7h22.7z"/>
		<path id="Path 16" class="s1" d="m1126.9 483.7h-22.6m-174.7 174.6l174.7-174.6m0-453.5v453.5"/>
		<path id="Path 17" class="s2" d="m929.6 658.3h22.7"/>
		<path id="Path 18" class="s4" d="m952.3 204.8l174.6-174.6v453.5l-174.6 174.6z"/>
		<path id="Path 19" class="s2" d="m952.3 658.3l174.6-174.6"/>
		<path id="19,1,1" class="s3" aria-label="19,1,1"  d="m937.7 720.6l-2.4-2.5 4.7-4.6-16.1-16.2-4.1 6.1-2.6-2.6 4-6 2.9-2.9 18.7 18.7 4.7-4.6 2.4 2.4zm17.6-18.5l-2.6-2.6q1.6-0.6 2.9-1.4 1.4-0.8 2.5-1.9 2.8-2.8 2.4-6.2-0.4-3.4-4.1-7.5 0.4 2-0.2 3.9-0.6 1.9-2.1 3.5-3.2 3.1-7 3.1-3.7-0.1-7.1-3.4-3.2-3.3-3.3-7.2 0-3.9 3.2-7.1 3.7-3.6 8.4-2.7 4.7 0.8 10.1 6.2 5 5 5.6 10.3 0.6 5.4-3.4 9.4-1.1 1.1-2.4 1.9-1.3 0.9-2.9 1.7zm-3.3-14.6q1.9-2 1.7-4.4-0.1-2.5-2.4-4.8-2.3-2.2-4.8-2.4-2.4-0.2-4.3 1.7-2 1.9-1.8 4.4 0.2 2.4 2.5 4.7 2.3 2.3 4.7 2.5 2.5 0.2 4.4-1.7zm21.2-4.8l-2.4-2.4 3-3 2.4 2.4 2.2 6.9-1.8 1.8zm10.6-8.2l-2.4-2.4 4.6-4.7-16.1-16.1-4.1 6.1-2.6-2.6 4.1-6.1 2.8-2.9 18.8 18.8 4.6-4.7 2.4 2.4zm17.1-19.4l-2.4-2.5 3-2.9 2.4 2.4 2.2 6.8-1.8 1.9zm10.6-8.3l-2.4-2.4 4.6-4.7-16.1-16.1-4.1 6.1-2.6-2.6 4.1-6.1 2.8-2.8 18.8 18.7 4.6-4.7 2.4 2.4z"/>
		<path id="Path 21" class="s2" d="m884.3 658.3v-453.5"/>
		<path id="Reshape" class="s3" aria-label="Reshape"  d="m724.5 428q1.3 0.4 2.5 1.9 1.2 1.4 2.5 3.9l4.1 8.2h-4.4l-3.8-7.7q-1.5-3-2.9-4-1.4-0.9-3.8-0.9h-4.4v12.6h-4v-29.9h9.1q5.1 0 7.7 2.2 2.5 2.1 2.5 6.4 0 2.8-1.3 4.7-1.3 1.9-3.8 2.6zm-5.1-12.6h-5.1v10.6h5.1q2.9 0 4.4-1.3 1.5-1.4 1.5-4 0-2.6-1.5-3.9-1.5-1.4-4.4-1.4zm36.5 14.5v1.8h-16.9q0.2 3.8 2.3 5.8 2.1 2 5.7 2 2.1 0 4.1-0.6 2-0.5 4-1.5v3.5q-2 0.8-4.1 1.2-2.1 0.5-4.2 0.5-5.4 0-8.5-3.1-3.1-3.2-3.1-8.5 0-5.5 2.9-8.7 3-3.3 8.1-3.3 4.5 0 7.1 3 2.6 2.9 2.6 7.9zm-16.8-1.1h13.2q-0.1-3-1.7-4.8-1.7-1.8-4.4-1.8-3.1 0-5 1.7-1.8 1.7-2.1 4.9zm37.2-8.6v3.5q-1.6-0.8-3.3-1.2-1.6-0.4-3.4-0.4-2.8 0-4.2 0.9-1.3 0.8-1.3 2.5 0 1.3 1 2 0.9 0.7 3.9 1.4l1.3 0.3q3.9 0.8 5.5 2.3 1.7 1.6 1.7 4.3 0 3.1-2.5 5-2.5 1.8-6.8 1.8-1.8 0-3.7-0.4-2-0.3-4.2-1v-3.8q2.1 1 4.1 1.6 2 0.5 3.9 0.5 2.6 0 4-0.9 1.4-0.9 1.4-2.5 0-1.5-1-2.3-1-0.8-4.4-1.5l-1.3-0.3q-3.5-0.8-5-2.3-1.5-1.5-1.5-4.1 0-3.1 2.2-4.8 2.3-1.8 6.4-1.8 2.1 0 3.9 0.3 1.8 0.3 3.3 0.9zm25.7 8.3v13.5h-3.7v-13.4q0-3.2-1.2-4.8-1.3-1.6-3.8-1.6-2.9 0-4.7 1.9-1.7 1.9-1.7 5.2v12.7h-3.7v-31.2h3.7v12.3q1.3-2.1 3.1-3.1 1.8-1 4.2-1 3.8 0 5.8 2.4 2 2.4 2 7.1zm21.2 2.2h-3.7q-4.4 0-6.2 1-1.7 1.1-1.7 3.5 0 2 1.3 3.2 1.3 1.1 3.5 1.1 3.1 0 4.9-2.2 1.9-2.1 1.9-5.8zm3.7-1.5v12.8h-3.7v-3.4q-1.3 2.1-3.2 3-1.8 1-4.6 1-3.4 0-5.4-1.9-2.1-2-2.1-5.2 0-3.8 2.6-5.7 2.5-1.9 7.5-1.9h5.2v-0.4q0-2.5-1.7-3.9-1.7-1.4-4.7-1.4-1.9 0-3.7 0.4-1.8 0.5-3.5 1.4v-3.4q2-0.8 3.9-1.1 1.9-0.4 3.7-0.4 4.9 0 7.3 2.5 2.4 2.5 2.4 7.6zm11.1 9.5v11.8h-3.7v-30.9h3.7v3.4q1.2-2 2.9-3 1.8-0.9 4.3-0.9 4.1 0 6.6 3.2 2.6 3.2 2.6 8.5 0 5.3-2.6 8.6-2.5 3.2-6.6 3.2-2.5 0-4.3-1-1.7-0.9-2.9-2.9zm12.6-7.9q0-4-1.7-6.3-1.7-2.4-4.6-2.4-2.9 0-4.6 2.4-1.7 2.3-1.7 6.3 0 4.1 1.7 6.4 1.7 2.3 4.6 2.3 2.9 0 4.6-2.3 1.7-2.3 1.7-6.4zm29.1-0.9v1.8h-17q0.3 3.8 2.3 5.8 2.1 2 5.7 2 2.2 0 4.1-0.5 2-0.6 4-1.6v3.5q-2 0.8-4.1 1.3-2 0.4-4.2 0.4-5.4 0-8.5-3.1-3.1-3.1-3.1-8.5 0-5.5 2.9-8.7 3-3.2 8.1-3.2 4.5 0 7.1 2.9 2.7 2.9 2.7 7.9zm-16.9-1.1h13.2q-0.1-3-1.7-4.8-1.7-1.8-4.4-1.8-3.1 0-4.9 1.7-1.9 1.8-2.2 4.9z"/>
		<path id="Path 23" class="s5" d="m574.7 344.3h396.9"/>
		<path id="Path 24" class="s6" d="m768.2 344.3h1"/>
		<path id="Path 25" class="s7" d="m778.9 344.3l-12.9-4.9 4.4 4.9-4.4 4.9z"/>
		<path id="Path 26" fill-rule="evenodd" class="s8" d="m1371.8 658.3h-22.6v-453.5h22.6zm174.7-628.2h-22.7l-174.6 174.7h22.6z"/>
		<path id="Path 27" class="s1" d="m1546.5 483.7h-22.7m-174.6 174.6l174.6-174.6m0-453.5v453.5"/>
		<path id="Path 28" class="s2" d="m1349.2 658.3h22.6"/>
		<path id="Path 29" fill-rule="evenodd" class="s8" d="m1394.5 658.3h-22.7v-453.5h22.7zm174.6-628.2h-22.6l-174.7 174.7h22.7z"/>
		<path id="Path 30" class="s1" d="m1569.1 483.7h-22.6m-174.7 174.6l174.7-174.6m0-453.5v453.5"/>
		<path id="Path 31" class="s2" d="m1371.8 658.3h22.7"/>
		<path id="Path 32" fill-rule="evenodd" class="s8" d="m1417.2 658.3h-22.7v-453.5h22.7zm174.6-628.2h-22.7l-174.6 174.7h22.7z"/>
		<path id="Path 33" class="s1" d="m1591.8 483.7h-22.7m-174.6 174.6l174.6-174.6m0-453.5v453.5"/>
		<path id="Path 34" class="s2" d="m1394.5 658.3h22.7"/>
		<path id="Path 35" class="s8" d="m1417.2 204.8l174.6-174.6v453.5l-174.6 174.6z"/>
		<path id="Path 36" class="s2" d="m1417.2 658.3l174.6-174.6"/>
		<path id="19,1,4" class="s3" aria-label="19,1,4"  d="m1402.6 720.5l-2.4-2.4 4.7-4.6-16.2-16.2-4 6.1-2.6-2.6 4-6 2.9-2.9 18.7 18.7 4.7-4.6 2.4 2.4zm17.6-18.5l-2.6-2.6q1.5-0.6 2.9-1.4 1.4-0.8 2.4-1.9 2.9-2.8 2.5-6.2-0.4-3.4-4.1-7.5 0.4 2-0.2 3.9-0.6 1.9-2.2 3.5-3.1 3.1-6.9 3.1-3.8-0.1-7.1-3.4-3.2-3.3-3.3-7.2 0-3.9 3.2-7.1 3.6-3.6 8.4-2.7 4.7 0.8 10.1 6.2 5 5 5.6 10.3 0.6 5.4-3.4 9.4-1.1 1.1-2.4 1.9-1.3 0.9-2.9 1.7zm-3.3-14.7q1.9-1.9 1.7-4.3-0.2-2.5-2.5-4.8-2.2-2.2-4.7-2.4-2.4-0.2-4.4 1.7-1.9 1.9-1.7 4.4 0.2 2.4 2.5 4.7 2.3 2.3 4.7 2.5 2.5 0.2 4.4-1.8zm21.2-4.7l-2.4-2.4 2.9-3 2.5 2.4 2.2 6.9-1.8 1.8zm10.5-8.2l-2.4-2.4 4.7-4.7-16.1-16.1-4.1 6.1-2.6-2.6 4-6.1 2.9-2.9 18.7 18.8 4.7-4.7 2.4 2.4zm17.1-19.4l-2.4-2.5 3-2.9 2.4 2.4 2.2 6.8-1.8 1.9zm10.5-23l-11.2-11.3 4 18.5zm-9.9 9.2l-4.6-22.2 3.6-3.6 13.8 13.8 3-3 2.4 2.3-3.1 3 5 5-2.8 2.9-5-5-9.5 9.5z"/>
		<path id="Path 38" class="s2" d="m1349.2 658.3v-453.5"/>
		<path id="Conv LSTM" class="s3" aria-label="Conv LSTM"  d="m1116.9 418.4v4.3q-2-1.9-4.3-2.9-2.3-0.9-4.9-0.9-5.2 0-7.9 3.1-2.7 3.2-2.7 9.1 0 5.9 2.7 9 2.7 3.2 7.9 3.2 2.6 0 4.9-1 2.3-0.9 4.3-2.8v4.2q-2.1 1.4-4.5 2.2-2.3 0.7-5 0.7-6.8 0-10.7-4.2-3.9-4.1-3.9-11.3 0-7.2 3.9-11.4 3.9-4.1 10.7-4.1 2.7 0 5.1 0.7 2.4 0.7 4.4 2.1zm14.8 7.8q-2.9 0-4.7 2.3-1.7 2.3-1.7 6.3 0 4 1.7 6.4 1.7 2.3 4.7 2.3 3 0 4.7-2.4 1.7-2.3 1.7-6.3 0-4-1.7-6.3-1.7-2.3-4.7-2.3zm0-3.2q4.8 0 7.6 3.2 2.7 3.1 2.7 8.6 0 5.5-2.7 8.7-2.8 3.1-7.6 3.1-4.8 0-7.6-3.1-2.7-3.2-2.7-8.7 0-5.5 2.7-8.6 2.8-3.2 7.6-3.2zm35.1 9.5v13.5h-3.7v-13.4q0-3.2-1.3-4.8-1.2-1.6-3.7-1.6-3 0-4.7 1.9-1.7 1.9-1.7 5.2v12.7h-3.7v-22.4h3.7v3.5q1.3-2.1 3.1-3.1 1.8-1 4.1-1 3.9 0 5.9 2.4 2 2.4 2 7.1zm13.1 13.5l-8.4-22.4h3.9l7 18.8 7-18.8h3.9l-8.4 22.4zm31.7 0v-29.9h4v26.5h14.6v3.4zm40.7-28.9v3.9q-2.3-1.1-4.3-1.6-2.1-0.5-4-0.5-3.3 0-5.1 1.2-1.8 1.3-1.8 3.7 0 2 1.2 3 1.2 1 4.5 1.6l2.5 0.5q4.5 0.9 6.7 3 2.1 2.2 2.1 5.9 0 4.3-2.9 6.5-2.9 2.3-8.5 2.3-2.2 0-4.6-0.5-2.3-0.5-4.9-1.4v-4.2q2.5 1.4 4.8 2.1 2.4 0.7 4.7 0.7 3.4 0 5.3-1.4 1.9-1.3 1.9-3.8 0-2.2-1.4-3.5-1.3-1.2-4.4-1.9l-2.5-0.4q-4.5-0.9-6.5-2.9-2-1.9-2-5.3 0-4 2.8-6.2 2.8-2.3 7.7-2.3 2.1 0 4.3 0.4 2.1 0.3 4.4 1.1zm4 2.4v-3.4h25.3v3.4h-10.6v26.5h-4.1v-26.5zm29.2 26.5v-29.9h6l7.6 20.4 7.7-20.4h6v29.9h-3.9v-26.2l-7.7 20.5h-4.1l-7.7-20.5v26.2z"/>
		<path id="Path 40" class="s5" d="m1039.6 344.3h396.9"/>
		<path id="Path 41" class="s6" d="m1233.1 344.3h1"/>
		<path id="Path 42" class="s7" d="m1243.8 344.3l-12.9-4.9 4.3 4.9-4.3 4.9z"/>
		<path id="Path 43" fill-rule="evenodd" class="s9" d="m1836.7 658.3h-22.6v-453.5h22.6zm174.6-628.2h-22.6l-174.6 174.7h22.6z"/>
		<path id="Path 44" class="s1" d="m2011.3 483.7h-22.6m-174.6 174.6l174.6-174.6m0-453.5v453.5"/>
		<path id="Path 45" class="s2" d="m1814.1 658.3h22.6"/>
		<path id="Path 46" class="s9" d="m1836.7 204.8l174.6-174.6v453.5l-174.6 174.6z"/>
		<path id="Path 47" class="s2" d="m1836.7 658.3l174.6-174.6"/>
		<path id="76" class="s3" aria-label="76"  d="m1827.7 677.5l-2.4-2.4 13.6-13.6 1.2 1.2 12.3 27.6-3 3-11.5-26zm32.6-18.6q-1.9 1.9-1.7 4.4 0.2 2.4 2.5 4.7 2.3 2.3 4.7 2.5 2.5 0.2 4.4-1.7 1.9-2 1.7-4.4-0.2-2.5-2.4-4.7-2.3-2.3-4.8-2.5-2.4-0.2-4.4 1.7zm-3.2-14.6l2.6 2.6q-1.6 0.5-3 1.4-1.3 0.8-2.4 1.9-2.9 2.8-2.4 6.2 0.4 3.4 4 7.5-0.4-2.1 0.2-4 0.6-1.9 2.2-3.4 3.1-3.2 6.9-3.1 3.8 0.1 7.1 3.4 3.3 3.2 3.3 7.1 0.1 3.9-3.1 7.1-3.7 3.7-8.4 2.8-4.8-0.9-10.1-6.2-5-5-5.6-10.4-0.7-5.3 3.4-9.3 1-1.1 2.3-2 1.3-0.9 3-1.6z"/>
		<path id="Path 49" class="s2" d="m1814.1 658.3v-453.5"/>
		<path id="Flatten" class="s3" aria-label="Flatten"  d="m1663.1 446v-29.9h17.2v3.4h-13.2v8.8h11.9v3.4h-11.9v14.3zm23.5 0v-31.2h3.6v31.2zm25.3-11.3h-3.7q-4.4 0-6.2 1-1.7 1.1-1.7 3.5 0 2 1.3 3.2 1.3 1.1 3.5 1.1 3.1 0 4.9-2.2 1.9-2.1 1.9-5.8zm3.7-1.5v12.8h-3.7v-3.4q-1.3 2.1-3.2 3-1.8 1-4.6 1-3.4 0-5.4-1.9-2.1-2-2.1-5.2 0-3.8 2.6-5.7 2.5-1.9 7.5-1.9h5.2v-0.4q0-2.5-1.7-3.9-1.7-1.4-4.7-1.4-1.9 0-3.7 0.4-1.8 0.5-3.5 1.4v-3.4q2-0.8 3.9-1.1 1.9-0.4 3.7-0.4 4.9 0 7.3 2.5 2.4 2.5 2.4 7.6zm7.5-16h3.7v6.4h7.6v2.9h-7.6v12.1q0 2.8 0.7 3.6 0.8 0.7 3.1 0.7h3.8v3.1h-3.8q-4.3 0-5.9-1.6-1.6-1.6-1.6-5.8v-12.1h-2.7v-2.9h2.7zm16.1 0h3.7v6.4h7.6v2.8h-7.6v12.2q0 2.7 0.7 3.5 0.8 0.8 3.1 0.8h3.8v3.1h-3.8q-4.3 0-5.9-1.6-1.6-1.6-1.6-5.8v-12.2h-2.7v-2.8h2.7zm35.3 16.6v1.8h-17q0.3 3.8 2.3 5.8 2.1 2 5.8 2 2.1 0 4.1-0.5 2-0.5 3.9-1.6v3.5q-2 0.9-4 1.3-2.1 0.4-4.3 0.4-5.3 0-8.5-3.1-3.1-3.1-3.1-8.4 0-5.5 3-8.8 2.9-3.2 8-3.2 4.5 0 7.1 2.9 2.7 2.9 2.7 7.9zm-16.8-1l13.1-0.1q0-3-1.7-4.8-1.6-1.8-4.4-1.8-3 0-4.9 1.8-1.9 1.7-2.1 4.9zm41.5-0.4v13.6h-3.7v-13.5q0-3.1-1.3-4.7-1.2-1.6-3.7-1.6-3 0-4.7 1.9-1.7 1.9-1.7 5.2v12.7h-3.7v-22.5h3.7v3.5q1.3-2 3.1-3 1.8-1 4.1-1 3.9 0 5.9 2.4 2 2.4 2 7z"/>
		<path id="Path 51" class="s5" d="m1504.5 344.3h396.9"/>
		<path id="Path 52" class="s6" d="m1698 344.3h1"/>
		<path id="Path 53" class="s7" d="m1708.6 344.3l-12.8-4.9 4.3 4.9-4.3 4.9z"/>
		<path id="Path 54" fill-rule="evenodd" class="s0" d="m2256.3 658.3h-22.7v-453.5h22.7zm174.6-628.2h-22.7l-174.6 174.7h22.7z"/>
		<path id="Path 55" class="s1" d="m2430.9 483.7h-22.7m-174.6 174.6l174.6-174.6m0-453.5v453.5"/>
		<path id="Path 56" class="s2" d="m2233.6 658.3h22.7"/>
		<path id="Path 57" class="s0" d="m2256.3 204.8l174.6-174.6v453.5l-174.6 174.6z"/>
		<path id="Path 58" class="s2" d="m2256.3 658.3l174.6-174.6"/>
		<path id="76" class="s3" aria-label="76"  d="m2247.3 677.5l-2.4-2.4 13.6-13.6 1.2 1.2 12.2 27.6-3 3-11.5-26zm32.7-18.6q-2 1.9-1.8 4.4 0.2 2.4 2.5 4.7 2.3 2.3 4.8 2.5 2.4 0.2 4.3-1.7 2-2 1.8-4.4-0.2-2.5-2.5-4.7-2.3-2.3-4.8-2.5-2.4-0.2-4.3 1.7zm-3.3-14.6l2.6 2.6q-1.6 0.5-3 1.4-1.3 0.8-2.4 1.9-2.8 2.8-2.4 6.2 0.4 3.4 4.1 7.5-0.4-2.1 0.2-4 0.6-1.9 2.1-3.4 3.2-3.2 6.9-3.1 3.8 0.1 7.2 3.4 3.2 3.2 3.2 7.1 0.1 3.9-3.1 7.1-3.7 3.7-8.4 2.8-4.8-0.9-10.1-6.2-5-5-5.6-10.4-0.6-5.3 3.4-9.3 1.1-1.1 2.4-2 1.3-0.9 2.9-1.6z"/>
		<path id="Path 60" class="s2" d="m2233.6 658.3v-453.5"/>
		<path id="Dropout" class="s3" aria-label="Dropout"  d="m2067.3 415.4h-4.8v23.3h4.8q6.2 0 9.1-2.8 2.9-2.8 2.9-8.9 0-6-2.9-8.8-2.9-2.8-9.1-2.8zm-8.9 26.6v-29.9h8.3q8.7 0 12.8 3.6 4 3.6 4 11.3 0 7.8-4 11.4-4.1 3.6-12.8 3.6zm44.4-22.8v3.8q-0.6-0.3-1.3-0.5-0.8-0.2-1.6-0.2-3.2 0-4.8 2.1-1.7 2-1.7 5.8v11.8h-3.7v-22.4h3.7v3.5q1.2-2.1 3-3.1 1.9-1 4.5-1 0.4 0 0.9 0.1 0.4 0 1 0.1zm11.7 3q-3 0-4.7 2.3-1.7 2.3-1.7 6.3 0 4 1.7 6.4 1.7 2.3 4.7 2.3 2.9 0 4.6-2.4 1.8-2.3 1.8-6.3 0-4-1.8-6.3-1.7-2.3-4.6-2.3zm0-3.2q4.8 0 7.5 3.2 2.8 3.1 2.8 8.6 0 5.5-2.8 8.7-2.7 3.1-7.5 3.1-4.8 0-7.6-3.1-2.7-3.2-2.7-8.7 0-5.5 2.7-8.6 2.8-3.2 7.6-3.2zm19.9 19.6v11.9h-3.7v-30.9h3.7v3.4q1.2-2 3-3 1.7-1 4.2-1 4.1 0 6.6 3.3 2.6 3.2 2.6 8.5 0 5.3-2.6 8.5-2.5 3.3-6.6 3.3-2.5 0-4.2-1-1.8-1-3-3zm12.6-7.8q0-4.1-1.7-6.4-1.7-2.3-4.6-2.3-2.9 0-4.6 2.3-1.7 2.3-1.7 6.4 0 4.1 1.7 6.4 1.7 2.3 4.6 2.3 2.9 0 4.6-2.3 1.7-2.3 1.7-6.4zm18.6-8.6q-3 0-4.7 2.3-1.7 2.3-1.7 6.3 0 4 1.7 6.4 1.7 2.3 4.7 2.3 2.9 0 4.7-2.4 1.7-2.3 1.7-6.3 0-4-1.7-6.3-1.8-2.3-4.7-2.3zm0-3.2q4.8 0 7.5 3.2 2.8 3.1 2.8 8.6 0 5.5-2.8 8.7-2.7 3.1-7.5 3.1-4.8 0-7.6-3.1-2.7-3.2-2.7-8.7 0-5.5 2.7-8.6 2.8-3.2 7.6-3.2zm16 14.2v-13.6h3.7v13.4q0 3.2 1.2 4.8 1.3 1.6 3.8 1.6 2.9 0 4.7-1.9 1.7-1.9 1.7-5.2v-12.7h3.7v22.4h-3.7v-3.4q-1.3 2-3.1 3-1.8 1-4.1 1-3.9 0-5.9-2.4-2-2.4-2-7zm9.3-14.2zm17-5.8h3.7v6.4h7.6v2.8h-7.6v12.2q0 2.8 0.8 3.5 0.7 0.8 3 0.8h3.8v3.1h-3.8q-4.2 0-5.9-1.6-1.6-1.6-1.6-5.8v-12.2h-2.7v-2.8h2.7z"/>
		<path id="Path 62" class="s5" d="m1924 344.3h396.9"/>
		<path id="Path 63" class="s6" d="m2117.5 344.3h1"/>
		<path id="Path 64" class="s7" d="m2128.2 344.3l-12.9-4.9 4.3 4.9-4.3 4.9z"/>
		<path id="Path 65" fill-rule="evenodd" class="s10" d="m2675.8 658.3h-22.7v-453.5h22.7zm174.6-628.2h-22.7l-174.6 174.7h22.7z"/>
		<path id="Path 66" class="s1" d="m2850.4 483.7h-22.7m-174.6 174.6l174.6-174.6m0-453.5v453.5"/>
		<path id="Path 67" class="s2" d="m2653.1 658.3h22.7"/>
		<path id="Path 68" class="s10" d="m2675.8 204.8l174.6-174.6v453.5l-174.6 174.6z"/>
		<path id="Path 69" class="s2" d="m2675.8 658.3l174.6-174.6"/>
		<path id="5" class="s3" aria-label="5"  d="m2684 676.7l-10.6-10.6 11.2-11.2 2.4 2.4-8.6 8.6 5.2 5.2q0.4-0.9 0.9-1.6 0.5-0.7 1.1-1.4 3.6-3.5 7.6-3.6 4-0.1 7.3 3.2 3.4 3.4 3.2 7.4-0.3 4-4.1 7.9-1.4 1.3-3 2.5-1.6 1.1-3.5 2.1l-2.9-2.8q2-0.6 3.7-1.6 1.7-1.1 3.2-2.6 2.5-2.4 2.6-5.1 0.1-2.8-2.1-5-2.2-2.2-4.9-2-2.7 0.1-5.2 2.5-1.1 1.2-2 2.6-0.9 1.4-1.5 3.1z"/>
		<path id="Path 71" class="s2" d="m2653.1 658.3v-453.5"/>
		<path id="Dense" class="s3" aria-label="Dense"  d="m2536.8 419.4h-4.9v23.3h4.9q6.2 0 9-2.8 2.9-2.8 2.9-8.9 0-6-2.9-8.8-2.8-2.8-9-2.8zm-8.9 26.6v-29.9h8.3q8.7 0 12.7 3.6 4.1 3.6 4.1 11.3 0 7.8-4.1 11.4-4.1 3.6-12.7 3.6zm50.6-12.1v1.8h-17q0.3 3.8 2.3 5.8 2.1 2 5.7 2 2.1 0 4.1-0.6 2-0.5 4-1.5v3.5q-2 0.8-4.1 1.2-2.1 0.5-4.2 0.5-5.4 0-8.5-3.1-3.1-3.2-3.1-8.5 0-5.5 2.9-8.7 3-3.3 8.1-3.3 4.5 0 7.1 3 2.7 2.9 2.7 7.9zm-16.9-1.1h13.2q-0.1-3-1.7-4.8-1.7-1.8-4.4-1.8-3.1 0-4.9 1.7-1.9 1.7-2.2 4.9zm41.5-0.3v13.5h-3.6v-13.4q0-3.2-1.3-4.8-1.2-1.6-3.7-1.6-3 0-4.7 1.9-1.7 1.9-1.7 5.2v12.7h-3.7v-22.4h3.7v3.5q1.3-2.1 3.1-3.1 1.8-1 4.1-1 3.9 0 5.9 2.4 1.9 2.4 1.9 7.1zm21.7-8.3v3.5q-1.6-0.8-3.3-1.2-1.6-0.4-3.4-0.4-2.8 0-4.2 0.9-1.3 0.8-1.3 2.5 0 1.3 0.9 2 1 0.7 4 1.4l1.3 0.3q3.9 0.8 5.5 2.3 1.7 1.6 1.7 4.3 0 3.1-2.5 5-2.5 1.8-6.8 1.8-1.8 0-3.8-0.4-1.9-0.3-4.1-1v-3.8q2.1 1 4.1 1.6 1.9 0.5 3.9 0.5 2.6 0 4-0.9 1.4-0.9 1.4-2.5 0-1.5-1-2.3-1-0.8-4.4-1.5l-1.3-0.3q-3.5-0.8-5-2.3-1.5-1.5-1.5-4.1 0-3.1 2.2-4.8 2.3-1.8 6.4-1.8 2.1 0 3.9 0.3 1.8 0.3 3.3 0.9zm26.2 9.7v1.8h-16.9q0.2 3.8 2.3 5.8 2 2 5.7 2 2.1 0 4.1-0.6 2-0.5 4-1.5v3.5q-2 0.8-4.1 1.2-2.1 0.5-4.2 0.5-5.4 0-8.5-3.1-3.2-3.2-3.2-8.5 0-5.5 3-8.7 3-3.3 8-3.3 4.6 0 7.2 3 2.6 2.9 2.6 7.9zm-16.8-1.1h13.1q0-3-1.7-4.8-1.6-1.8-4.3-1.8-3.1 0-5 1.7-1.8 1.7-2.1 4.9z"/>
		<path id="Path 73" class="s5" d="m2343.6 344.3h396.8"/>
		<path id="Path 74" class="s6" d="m2537 344.3h1.1"/>
		<path id="Path 75" class="s7" d="m2547.7 344.3l-12.9-4.9 4.4 4.9-4.4 4.9z"/>
	</g>
</svg>